<svg width="1200" height="630" viewBox="0 0 1200 630" fill="none" xmlns="http://www.w3.org/2000/svg">
  <rect width="1200" height="630" fill="#0a0a0a"/>
  <!-- Waveform bars (decorative) -->
  <g opacity="0.3">
    <rect x="100" y="280" width="4" height="70" rx="2" fill="#8b5cf6"/>
    <rect x="112" y="250" width="4" height="130" rx="2" fill="#8b5cf6"/>
    <rect x="124" y="270" width="4" height="90" rx="2" fill="#8b5cf6"/>
    <rect x="136" y="240" width="4" height="150" rx="2" fill="#8b5cf6"/>
    <rect x="148" y="260" width="4" height="110" rx="2" fill="#8b5cf6"/>
    <rect x="160" y="230" width="4" height="170" rx="2" fill="#8b5cf6"/>
    <rect x="172" y="255" width="4" height="120" rx="2" fill="#8b5cf6"/>
    <rect x="184" y="275" width="4" height="80" rx="2" fill="#8b5cf6"/>
    <rect x="196" y="245" width="4" height="140" rx="2" fill="#8b5cf6"/>
    <rect x="208" y="265" width="4" height="100" rx="2" fill="#8b5cf6"/>
  </g>
  <g opacity="0.3">
    <rect x="988" y="280" width="4" height="70" rx="2" fill="#8b5cf6"/>
    <rect x="1000" y="250" width="4" height="130" rx="2" fill="#8b5cf6"/>
    <rect x="1012" y="270" width="4" height="90" rx="2" fill="#8b5cf6"/>
    <rect x="1024" y="240" width="4" height="150" rx="2" fill="#8b5cf6"/>
    <rect x="1036" y="260" width="4" height="110" rx="2" fill="#8b5cf6"/>
    <rect x="1048" y="230" width="4" height="170" rx="2" fill="#8b5cf6"/>
    <rect x="1060" y="255" width="4" height="120" rx="2" fill="#8b5cf6"/>
    <rect x="1072" y="275" width="4" height="80" rx="2" fill="#8b5cf6"/>
    <rect x="1084" y="245" width="4" height="140" rx="2" fill="#8b5cf6"/>
    <rect x="1096" y="265" width="4" height="100" rx="2" fill="#8b5cf6"/>
  </g>
  <!-- Title -->
  <text x="600" y="280" text-anchor="middle" font-family="monospace" font-size="64" font-weight="bold" fill="#f5f5f5">SoundSketch</text>
  <!-- Accent line -->
  <rect x="450" y="300" width="300" height="3" rx="1.5" fill="#8b5cf6"/>
  <!-- Tagline -->
  <text x="600" y="360" text-anchor="middle" font-family="sans-serif" font-size="24" fill="#a3a3a3">Music Collaboration Platform</text>
</svg>
